<svg width="300" height="300" viewBox="-220 -220  440 440" xmlns="http://www.w3.org/2000/svg"><circle cx="-23.536658860608537" cy="-200" r="5" fill="blue" /><text x="-13.536658860608537" y="-195" font-family="Arial" font-size="9" fill="black">CRCLRHAUS</text><circle cx="57.56299241535216" cy="21.50779428191224" r="5" fill="blue" /><text x="67.56299241535217" y="26.50779428191224" font-family="Arial" font-size="9" fill="black">Celo</text><circle cx="36.1207065706334" cy="89.66838170092687" r="5" fill="blue" /><text x="46.1207065706334" y="94.66838170092687" font-family="Arial" font-size="9" fill="black">MoosMeshMaking</text><circle cx="-0.11195794406838992" cy="-132.2278896122481" r="5" fill="blue" /><text x="9.88804205593161" y="-127.2278896122481" font-family="Arial" font-size="9" fill="black">p4p</text><circle cx="-110.74492138949775" cy="-114.49135769496944" r="5" fill="blue" /><text x="-100.74492138949775" y="-109.49135769496944" font-family="Arial" font-size="9" fill="black">SeaWatch</text><circle cx="-97.00872988816873" cy="7.606773245072791" r="5" fill="blue" /><text x="-87.00872988816873" y="12.606773245072791" font-family="Arial" font-size="9" fill="black">Eigenklang</text><circle cx="14.176635350925212" cy="173.77406864027333" r="5" fill="blue" /><text x="24.17663535092521" y="178.77406864027333" font-family="Arial" font-size="9" fill="black">Gnosis</text><circle cx="114.22082675483782" cy="179.7536781111796" r="5" fill="blue" /><text x="124.22082675483782" y="184.7536781111796" font-family="Arial" font-size="9" fill="black">offline</text><circle cx="-23.129672873968662" cy="-65.35828509290627" r="5" fill="blue" /><text x="-13.129672873968662" y="-60.35828509290627" font-family="Arial" font-size="9" fill="black">seksdesign</text><circle cx="-43.43711086510619" cy="11.409035674748832" r="5" fill="blue" /><text x="-33.43711086510619" y="16.409035674748832" font-family="Arial" font-size="9" fill="black">ImpactHub</text><circle cx="-1.1939493134066712" cy="44.60183333138934" r="5" fill="blue" /><text x="8.806050686593329" y="49.60183333138934" font-family="Arial" font-size="9" fill="black">TRNSFRMeG</text><circle cx="-58.191457803002" cy="188.86644782643378" r="5" fill="blue" /><text x="-48.191457803002" y="193.86644782643378" font-family="Arial" font-size="9" fill="black">SuperCoop</text><circle cx="-200" cy="-196.94162017042123" r="5" fill="blue" /><text x="-190" y="-191.94162017042123" font-family="Arial" font-size="9" fill="black">UHU</text><circle cx="105.8144550791013" cy="-139.31189260921713" r="5" fill="blue" /><text x="115.8144550791013" y="-134.31189260921713" font-family="Arial" font-size="9" fill="black">CeloGather</text><circle cx="-75.88475712662698" cy="89.75051466791383" r="5" fill="blue" /><text x="-65.88475712662698" y="94.75051466791383" font-family="Arial" font-size="9" fill="black">TheYBerlinCode2Community</text><circle cx="70.58104154121118" cy="139.6820795386477" r="5" fill="blue" /><text x="80.58104154121118" y="144.6820795386477" font-family="Arial" font-size="9" fill="black">RootsRadical</text><circle cx="-68.21406183869001" cy="-76.13486476749597" r="5" fill="blue" /><text x="-58.214061838690014" y="-71.13486476749597" font-family="Arial" font-size="9" fill="black">FullNodeBerlin</text><circle cx="-24.96469879552726" cy="113.53997561208126" r="5" fill="blue" /><text x="-14.964698795527259" y="118.53997561208126" font-family="Arial" font-size="9" fill="black">Moos</text><circle cx="112.1686428287157" cy="43.27147423413485" r="5" fill="blue" /><text x="122.1686428287157" y="48.27147423413485" font-family="Arial" font-size="9" fill="black">Vollgut</text><circle cx="17.02475491747067" cy="-27.514489347688325" r="5" fill="blue" /><text x="27.02475491747067" y="-22.514489347688325" font-family="Arial" font-size="9" fill="black">HologramCollective</text><circle cx="44.8071394369275" cy="-107.61376588391167" r="5" fill="blue" /><text x="54.8071394369275" y="-102.61376588391167" font-family="Arial" font-size="9" fill="black">Dappcon2024</text><circle cx="79.47510545768537" cy="-48.41820114799905" r="5" fill="blue" /><text x="89.47510545768537" y="-43.41820114799905" font-family="Arial" font-size="9" fill="black">CirclesUBI</text></svg>